<svg xmlns="http://www.w3.org/2000/svg" viewBox="0 0 48 60" x="0px" y="0px"><circle cx="12" cy="14" r="1"/><path d="M27.03,13h-10.98c-.55,0-1,.45-1,1s.45,1,1,1h10.98c.55,0,1-.45,1-1s-.45-1-1-1Z"/><path d="M22.05,21h-6c-.55,0-1,.45-1,1s.45,1,1,1h6c.55,0,1-.45,1-1s-.45-1-1-1Z"/><path d="M16.05,27h4c.55,0,1-.45,1-1s-.45-1-1-1h-4c-.55,0-1,.45-1,1s.45,1,1,1Z"/><path d="M16.05,31h11c.55,0,1-.45,1-1s-.45-1-1-1h-11c-.55,0-1,.45-1,1s.45,1,1,1Z"/><path d="M28.03,18c0-.55-.45-1-1-1h-10.98c-.55,0-1,.45-1,1s.45,1,1,1h10.98c.55,0,1-.45,1-1Z"/><g><path d="M33,26c-.55,0-1,.45-1,1v10.82c0,.29-.13,.57-.36,.8-.3,.29-.73,.48-1.19,.44-.87-.02-1.45-.71-1.45-1.33v-1.73c0-.55-.45-1-1-1H8V9l24,.04v.96c0,.55,.45,1,1,1s1-.45,1-1v-1c0-1.1-.9-2-2-2H8c-1.1,0-2,.9-2,2v26h-2c-.55,0-1,.45-1,1v1.49c-.19,1.65,1.17,3.14,3.2,3.5,.06,.01,.15,.01,.21,.01H30c.06,0,.11,0,.17-.01,.08,0,.15,.01,.23,.01h.1c.95,0,1.87-.37,2.54-1.01,.62-.61,.96-1.4,.96-2.23v-10.76c0-.55-.45-1-1-1ZM6.47,39c-.8-.16-1.57-.69-1.48-1.3,.01-.05,.01-.1,.01-.15v-.55H27v.67c0,.47,.11,.92,.3,1.33H6.47Z"/><path d="M38.95,14.05l-2.12-2.12c-.39-.39-1.02-.39-1.41,0l-11.31,11.31c-.15,.15-.25,.35-.28,.57l-.35,2.47c-.04,.31,.06,.63,.28,.85s.54,.33,.85,.28l2.47-.35c.21-.03,.41-.13,.57-.28l7.07-7.07,4.24-4.24c.39-.39,.39-1.02,0-1.41Zm-12.03,10.61l-.71-.7,9.91-9.91,.71,.71-9.9,9.9Z"/><path d="M43.19,9.81l-2.12-2.12c-.39-.39-1.02-.39-1.41,0l-.71,.71c-.39,.39-.39,1.02,0,1.41-.39-.39-1.02-.39-1.41,0-.39,.39-.39,1.02,0,1.41l2.12,2.12c.39,.39,1.02,.39,1.41,0,.39-.39,.39-1.02,0-1.41,.39,.39,1.02,.39,1.41,0l.71-.71c.39-.39,.39-1.02,0-1.41Z"/><path d="M39.66,16.17l-3.54,3.54c-.39-.39-1.02-.39-1.41,0-.39,.39-.39,1.02,0,1.41-.39,.39-.39,1.02,0,1.41,.39,.39,1.02,.39,1.41,0l4.95-4.95c.39-.39,.39-1.02,0-1.41-.39-.39-1.02-.39-1.41,0Z"/></g><circle cx="12" cy="18" r="1"/><circle cx="12" cy="22" r="1"/><circle cx="12" cy="26" r="1"/><circle cx="12" cy="30" r="1"/></svg>